<svg width="1715" height="711" viewBox="0 0 1715 711" fill="none" xmlns="http://www.w3.org/2000/svg">
<path d="M117.416 632.38H284.817C284.209 644.202 283.563 655.769 282.922 666.381H119.307C118.668 655.772 118.025 644.206 117.416 632.38ZM120.4 683.467C120.959 691.639 121.5 698.649 122.007 704H280.217C280.726 698.648 281.269 691.636 281.826 683.467C281.954 681.601 282.082 679.758 282.21 677.781H120.018C120.146 679.76 120.274 681.601 120.4 683.467ZM415.781 356.698V371.049C418.808 372.008 421.453 373.9 423.338 376.452C425.223 379.004 426.251 382.087 426.274 385.258V453.762C426.251 456.933 425.223 460.016 423.338 462.568C421.454 465.12 418.808 467.012 415.781 467.971V478.877L408.106 479.298C406.277 479.286 404.478 479.756 402.889 480.661C401.301 481.566 399.98 482.874 399.06 484.453C397.985 486.578 397.037 488.765 396.219 491.001V490.839C391.655 507.598 383.688 523.24 372.812 536.794C368.388 544.909 362.814 552.343 356.263 558.866C353.7 561.574 352.011 564.989 351.416 568.668C351.13 570.528 350.837 572.62 350.559 574.664C349.813 580.173 349.189 585.437 349.189 585.437C349.073 591.59 346.672 597.48 342.453 601.966C338.235 606.452 332.498 609.214 326.356 609.716H323.205L321.273 673.842C319.541 677.025 319.052 681.418 307.623 681.418H297.4C298.84 661.548 300.236 635.969 301.493 609.716C301.658 606.241 301.821 602.762 301.982 599.28C302.23 593.919 302.471 588.581 302.705 583.265C302.777 581.609 302.857 579.963 302.923 578.317C298.027 579.402 292.903 580.339 287.486 581.1C287.455 581.816 287.422 582.543 287.389 583.265C287.322 584.817 287.255 586.332 287.181 587.914C287.013 591.633 286.838 595.422 286.656 599.28C286.493 602.723 286.326 606.211 286.154 609.716C286.064 611.564 285.971 613.414 285.877 615.268H116.258C116.166 613.413 116.074 611.563 115.982 609.716C115.812 606.22 115.645 602.724 115.482 599.28C115.299 595.43 115.124 591.632 114.956 587.914C114.883 586.328 114.818 584.82 114.746 583.265L114.667 581.441C109.326 580.681 104.18 579.723 99.2274 578.568C99.2954 580.131 99.3644 581.699 99.4345 583.269C99.6658 588.58 99.9058 593.919 100.154 599.284C100.315 602.77 100.478 606.249 100.643 609.721C101.896 635.993 103.289 661.554 104.724 681.423H97.722C86.2901 681.423 85.803 677.03 84.0723 673.847L82.139 609.721H78.1615C72.0206 609.217 66.2858 606.454 62.0685 601.969C57.8513 597.483 55.4521 591.593 55.3359 585.441C55.3359 585.441 53.08 566.5 52.0388 562.884C48.0909 557.243 43.4574 552.113 38.2444 547.612C36.2001 545.662 34.6931 544.268 34.6931 544.268L35.302 544.56C23.7112 532.623 14.6231 518.497 8.57043 503.007C2.51773 487.518 -0.377788 470.979 0.0535771 454.358V242.668C-0.471729 224.726 2.87093 206.881 9.85511 190.341C16.8393 173.802 27.3018 158.955 40.5339 146.806C44.3516 143.054 47.7228 138.874 50.5805 134.349C51.6217 130.733 53.8776 111.792 53.8776 111.792C54.0336 105.823 56.3333 100.109 60.3572 95.6916C64.3812 91.2747 69.8612 88.4494 75.7975 87.7313C76.035 51.872 77.2177 5.89074 82.0705 5H319.664C324.512 5.88922 325.482 51.8173 325.564 87.672C331.556 88.3338 337.104 91.1429 341.179 95.5782C345.255 100.014 347.581 105.774 347.728 111.792C347.728 111.792 348.353 117.056 349.098 122.563C349.378 124.615 349.67 126.701 349.955 128.56C350.551 132.238 352.24 135.653 354.803 138.362C360.762 144.372 366.277 150.805 371.304 157.612L370.999 157.427C382.797 170.915 391.424 186.867 396.248 204.115C397.051 206.32 397.988 208.474 399.052 210.566C399.972 212.144 401.293 213.452 402.881 214.357C404.47 215.263 406.27 215.733 408.099 215.72L415.774 216.141V241.518C418.801 242.476 421.448 244.367 423.334 246.918C425.22 249.47 426.249 252.552 426.274 255.723V317.382C426.251 320.553 425.223 323.636 423.338 326.188C421.453 328.74 418.808 330.632 415.781 331.591V356.698ZM81.3399 583.072H80.7584C79.7031 583.072 78.6582 583.279 77.6832 583.682C76.7083 584.086 75.8224 584.677 75.0762 585.422C74.3301 586.167 73.7381 587.052 73.3343 588.025C72.9305 588.999 72.7226 590.042 72.7226 591.096C72.7226 592.15 72.9305 593.193 73.3343 594.167C73.7381 595.14 74.3301 596.025 75.0762 596.77C75.8224 597.515 76.7083 598.106 77.6832 598.509C78.6582 598.913 79.7031 599.12 80.7584 599.12H81.8239L81.3399 583.072ZM378.522 241.778C378.522 176.695 331.988 134.641 259.97 134.641H141.481C68.3858 134.641 22.9781 175.693 22.9781 241.778V453.894C22.9781 520.733 68.6994 560.637 145.284 560.637C147.643 560.637 150.045 560.599 152.472 560.525L152.899 560.511H153.324L240.09 561.029C269.884 563.139 299.734 557.797 326.94 545.487C342.788 536.034 355.887 522.608 364.936 506.541C373.986 490.474 378.673 472.324 378.533 453.891L378.522 241.778ZM325.549 98.3853C325.534 104.247 325.502 109.234 325.467 113.107C326.92 112.504 328.163 111.487 329.04 110.183C329.917 108.878 330.389 107.344 330.398 105.773C330.407 104.202 329.952 102.663 329.089 101.349C328.227 100.035 326.995 99.0041 325.549 98.3853ZM71.4181 105.718C71.4353 107.168 71.8486 108.585 72.6134 109.817C73.3782 111.049 74.4655 112.05 75.7579 112.71C75.7412 108.971 75.7336 104.253 75.7412 98.7409C74.4572 99.4031 73.3776 100.401 72.618 101.629C71.8584 102.857 71.4366 104.275 71.4181 105.718ZM331.671 591.088C331.654 589.035 330.848 587.067 329.421 585.589C327.993 584.111 326.052 583.236 323.998 583.145L323.518 599.105H323.605C325.737 599.103 327.782 598.258 329.293 596.757C330.804 595.255 331.659 593.217 331.671 591.088Z" fill="#222222"/>
<path d="M1545.1 208.449C1542.1 181.256 1529.22 160.131 1506.47 145.074C1483.71 130.017 1452.82 122.488 1413.81 122.488C1387.3 122.488 1364.92 125.859 1346.66 132.601C1328.41 139.119 1314.4 148.22 1304.65 159.906C1295.15 171.592 1290.4 184.852 1290.4 199.684C1289.9 212.045 1292.77 222.832 1299.02 232.046C1305.53 241.26 1314.4 249.238 1325.66 255.98C1336.91 262.497 1349.91 268.228 1364.67 273.172C1379.42 277.891 1395.18 281.937 1411.93 285.308L1480.96 300.14C1514.47 306.882 1545.23 315.871 1573.24 327.108C1601.25 338.345 1625.5 352.166 1646.01 368.571C1666.52 384.977 1682.4 404.304 1693.65 426.552C1705.16 448.801 1711.03 474.308 1711.28 503.074C1711.03 545.324 1699.03 581.956 1675.27 612.969C1651.76 643.757 1617.75 667.691 1573.24 684.771C1528.97 701.626 1475.58 710.054 1413.06 710.054C1351.04 710.054 1297.02 701.514 1251.01 684.434C1205.24 667.354 1169.48 642.072 1143.72 608.587C1118.21 574.877 1104.84 533.188 1103.58 483.522H1260.76C1262.51 506.67 1269.89 525.997 1282.89 541.504C1296.15 556.785 1313.78 568.359 1335.79 576.225C1358.04 583.866 1383.18 587.686 1411.18 587.686C1438.69 587.686 1462.58 584.091 1482.83 576.899C1503.34 569.708 1519.22 559.707 1530.47 546.897C1541.73 534.087 1547.35 519.367 1547.35 502.737C1547.35 487.231 1542.23 474.196 1531.97 463.633C1521.97 453.071 1507.22 444.082 1487.71 436.666C1468.45 429.249 1444.82 422.507 1416.81 416.44L1333.16 397.562C1268.39 383.404 1217.25 361.267 1179.73 331.153C1142.22 301.039 1123.59 260.475 1123.84 209.46C1123.59 167.66 1135.97 131.14 1160.98 99.9026C1186.24 68.6646 1220.87 44.281 1264.89 26.7518C1308.9 9.22262 1358.92 0.458008 1414.94 0.458008C1471.95 0.458008 1521.72 9.22262 1564.23 26.7518C1607 44.281 1640.26 68.6646 1664.02 99.9026C1687.77 131.14 1700.03 167.323 1700.78 208.449H1545.1Z" fill="#222222"/>
<path d="M563.961 698.854V9.53271H1071.85V129.693H726.139V293.945H1038.14V414.105H726.139V698.854H563.961Z" fill="#222222"/>
</svg>
