<svg width="427" height="700" viewBox="0 0 427 700" fill="none" xmlns="http://www.w3.org/2000/svg">
<path d="M118.109 627.88H285.51C284.901 639.702 284.256 651.269 283.615 661.881H119.999C119.36 651.272 118.718 639.706 118.109 627.88ZM121.092 678.967C121.651 687.139 122.193 694.149 122.7 699.5H280.91C281.418 694.148 281.962 687.136 282.519 678.967C282.647 677.101 282.774 675.258 282.902 673.281H120.71C120.838 675.26 120.966 677.101 121.092 678.967ZM416.474 352.198V366.549C419.501 367.508 422.146 369.4 424.031 371.952C425.915 374.504 426.943 377.587 426.966 380.758V449.262C426.943 452.433 425.916 455.516 424.031 458.068C422.146 460.62 419.501 462.512 416.474 463.471V474.377L408.799 474.798C406.97 474.786 405.17 475.256 403.581 476.161C401.993 477.066 400.672 478.374 399.752 479.953C398.678 482.078 397.729 484.265 396.912 486.501V486.339C392.348 503.098 384.38 518.74 373.505 532.294C369.081 540.409 363.507 547.843 356.955 554.366C354.392 557.074 352.703 560.489 352.108 564.168C351.822 566.028 351.53 568.12 351.251 570.164C350.505 575.673 349.881 580.937 349.881 580.937C349.765 587.09 347.365 592.98 343.146 597.466C338.927 601.952 333.19 604.714 327.048 605.216H323.897L321.965 669.342C320.233 672.525 319.744 676.918 308.316 676.918H298.092C299.533 657.048 300.928 631.469 302.186 605.216C302.35 601.741 302.513 598.262 302.674 594.78C302.922 589.419 303.163 584.081 303.397 578.765C303.469 577.109 303.55 575.463 303.615 573.817C298.72 574.902 293.596 575.839 288.178 576.6C288.148 577.316 288.114 578.043 288.081 578.765C288.014 580.317 287.947 581.832 287.874 583.414C287.705 587.133 287.53 590.922 287.349 594.78C287.186 598.223 287.018 601.711 286.846 605.216C286.756 607.064 286.664 608.914 286.569 610.768H116.95C116.858 608.913 116.766 607.063 116.675 605.216C116.504 601.72 116.337 598.224 116.174 594.78C115.991 590.93 115.816 587.132 115.649 583.414C115.576 581.828 115.51 580.32 115.439 578.765L115.36 576.941C110.019 576.181 104.872 575.223 99.9198 574.068C99.9878 575.631 100.057 577.199 100.127 578.769C100.358 584.08 100.598 589.419 100.847 594.784C101.007 598.27 101.17 601.749 101.335 605.221C102.588 631.493 103.981 657.054 105.417 676.923H98.4144C86.9825 676.923 86.4954 672.53 84.7646 669.347L82.8314 605.221H78.8539C72.713 604.717 66.9781 601.954 62.7609 597.469C58.5437 592.983 56.1445 587.093 56.0283 580.941C56.0283 580.941 53.7723 562 52.7311 558.384C48.7833 552.743 44.1498 547.613 38.9368 543.112C36.8925 541.162 35.3855 539.768 35.3855 539.768L35.9944 540.06C24.4036 528.123 15.3155 513.997 9.26281 498.507C3.21012 483.018 0.314595 466.479 0.74596 449.858V238.168C0.220654 220.226 3.56332 202.381 10.5475 185.841C17.5317 169.302 27.9942 154.455 41.2262 142.306C45.044 138.554 48.4152 134.374 51.2729 129.849C52.3141 126.233 54.57 107.292 54.57 107.292C54.726 101.323 57.0257 95.6086 61.0496 91.1916C65.0736 86.7747 70.5535 83.9494 76.4899 83.2313C76.7273 47.372 77.9101 1.39074 82.7629 0.5H320.356C325.205 1.38922 326.174 47.3173 326.257 83.172C332.248 83.8338 337.796 86.6429 341.872 91.0782C345.947 95.5136 348.274 101.274 348.42 107.292C348.42 107.292 349.046 112.556 349.79 118.063C350.07 120.115 350.362 122.201 350.647 124.06C351.243 127.738 352.932 131.153 355.495 133.862C361.455 139.872 366.969 146.305 371.996 153.112L371.692 152.927C383.489 166.415 392.116 182.367 396.941 199.615C397.744 201.82 398.68 203.974 399.745 206.066C400.664 207.644 401.985 208.952 403.574 209.857C405.162 210.763 406.962 211.233 408.791 211.22L416.466 211.641V237.018C419.494 237.976 422.14 239.867 424.026 242.418C425.912 244.97 426.941 248.052 426.966 251.223V312.882C426.943 316.053 425.915 319.136 424.031 321.688C422.146 324.24 419.501 326.132 416.474 327.091V352.198ZM82.0323 578.572H81.4508C80.3955 578.572 79.3506 578.779 78.3756 579.182C77.4007 579.586 76.5148 580.177 75.7686 580.922C75.0224 581.667 74.4305 582.552 74.0267 583.525C73.6229 584.499 73.415 585.542 73.415 586.596C73.415 587.65 73.6229 588.693 74.0267 589.667C74.4305 590.64 75.0224 591.525 75.7686 592.27C76.5148 593.015 77.4007 593.606 78.3756 594.009C79.3506 594.413 80.3955 594.62 81.4508 594.62H82.5163L82.0323 578.572ZM379.214 237.278C379.214 172.195 332.68 130.141 260.663 130.141H142.173C69.0782 130.141 23.6705 171.193 23.6705 237.278V449.394C23.6705 516.233 69.3918 556.137 145.976 556.137C148.335 556.137 150.737 556.099 153.164 556.025L153.592 556.011H154.016L240.783 556.529C270.576 558.639 300.427 553.297 327.633 540.987C343.481 531.534 356.579 518.108 365.629 502.041C374.679 485.974 379.366 467.824 379.225 449.391L379.214 237.278ZM326.241 93.8853C326.226 99.7465 326.194 104.734 326.159 108.607C327.612 108.004 328.855 106.987 329.732 105.683C330.609 104.378 331.082 102.844 331.091 101.273C331.099 99.7021 330.644 98.1632 329.781 96.8492C328.919 95.5351 327.688 94.5041 326.241 93.8853ZM72.1105 101.218C72.1277 102.668 72.541 104.085 73.3058 105.317C74.0706 106.549 75.1579 107.55 76.4503 108.21C76.4336 104.471 76.4259 99.7526 76.4336 94.2409C75.1495 94.9031 74.07 95.9014 73.3104 97.129C72.5508 98.3566 72.129 99.775 72.1105 101.218ZM332.364 586.588C332.346 584.535 331.541 582.567 330.113 581.089C328.685 579.611 326.744 578.736 324.69 578.645L324.211 594.605H324.297C326.429 594.603 328.474 593.758 329.985 592.257C331.496 590.755 332.351 588.717 332.364 586.588Z" fill="#222222"/>
</svg>
