<svg width="99" height="41" viewBox="0 0 99 41" fill="none" xmlns="http://www.w3.org/2000/svg">
<path d="M56.3913 12.5838C56.2213 11.0431 55.4916 9.84617 54.2022 8.99305C52.9128 8.13994 51.1629 7.71338 48.9524 7.71338C47.4505 7.71338 46.1824 7.90438 45.148 8.28637C44.1137 8.65563 43.3202 9.17132 42.7676 9.83344C42.2291 10.4956 41.9599 11.2468 41.9599 12.0872C41.9316 12.7875 42.0945 13.3987 42.4488 13.9208C42.8172 14.4428 43.3202 14.8948 43.9578 15.2768C44.5954 15.6461 45.3322 15.9708 46.1682 16.2509C47.0042 16.5183 47.8968 16.7475 48.8462 16.9385L52.7569 17.7789C54.6556 18.1609 56.3984 18.6702 57.9854 19.3068C59.5723 19.9435 60.9467 20.7266 62.1086 21.6561C63.2705 22.5856 64.1702 23.6807 64.8078 24.9412C65.4596 26.2018 65.7926 27.647 65.8068 29.2768C65.7926 31.6707 65.1125 33.7462 63.7664 35.5033C62.4345 37.2478 60.5075 38.6038 57.9854 39.5715C55.4774 40.5265 52.4523 41.004 48.9099 41.004C45.396 41.004 42.3354 40.5202 39.7283 39.5524C37.1353 38.5847 35.1091 37.1523 33.6497 35.255C32.2044 33.3451 31.4463 30.9831 31.3755 28.1691H40.2809C40.3801 29.4806 40.798 30.5756 41.5348 31.4542C42.2858 32.3201 43.2847 32.9758 44.5316 33.4215C45.7927 33.8544 47.2167 34.0709 48.8037 34.0709C50.3623 34.0709 51.7155 33.8671 52.8632 33.4597C54.025 33.0522 54.9248 32.4856 55.5624 31.7598C56.2 31.034 56.5188 30.2 56.5188 29.2577C56.5188 28.3792 56.2284 27.6406 55.6474 27.0422C55.0807 26.4437 54.2447 25.9344 53.1395 25.5142C52.0484 25.094 50.7094 24.712 49.1225 24.3682L44.3829 23.2987C40.713 22.4965 37.8154 21.2423 35.69 19.536C33.5646 17.8298 32.509 15.5315 32.5232 12.6411C32.509 10.2727 33.2104 8.2036 34.6273 6.43371C36.0584 4.66381 38.0209 3.28227 40.5147 2.28909C43.0084 1.29591 45.8423 0.799316 49.0162 0.799316C52.2468 0.799316 55.0665 1.29591 57.4753 2.28909C59.8982 3.28227 61.7827 4.66381 63.1288 6.43371C64.4749 8.2036 65.1692 10.2536 65.2117 12.5838H56.3913Z" fill="white"/>
<path d="M0.80127 40.3692V1.31323H29.5773V8.12133H9.99008V17.4276H27.6674V24.2357H9.99008V40.3692H0.80127Z" fill="#f4f4f7"/>
<path d="M80.6526 36.5973H90.1374C90.1029 37.2681 90.0663 37.9244 90.03 38.5265H80.7598C80.7235 37.9246 80.6871 37.2683 80.6526 36.5973ZM80.8217 39.496C80.8533 39.9597 80.884 40.3574 80.9128 40.661H89.8767C89.9055 40.3573 89.9363 39.9595 89.9679 39.496C89.9751 39.3901 89.9824 39.2856 89.9896 39.1734H80.8C80.8073 39.2856 80.8145 39.3901 80.8217 39.496ZM97.5576 20.9552V21.7695C97.7291 21.8239 97.879 21.9312 97.9858 22.0761C98.0925 22.2209 98.1508 22.3958 98.1521 22.5757V26.4626C98.1508 26.6425 98.0926 26.8174 97.9858 26.9623C97.879 27.1071 97.7291 27.2144 97.5576 27.2688V27.8876L97.1227 27.9115C97.0191 27.9108 96.9171 27.9375 96.8271 27.9889C96.7371 28.0402 96.6623 28.1144 96.6102 28.204C96.5493 28.3246 96.4956 28.4487 96.4492 28.5755V28.5663C96.1906 29.5172 95.7392 30.4048 95.123 31.1738C94.8724 31.6342 94.5566 32.056 94.1853 32.4262C94.0401 32.5798 93.9444 32.7736 93.9107 32.9823C93.8945 33.0879 93.878 33.2066 93.8622 33.3226C93.8199 33.6351 93.7846 33.9338 93.7846 33.9338C93.778 34.2829 93.642 34.6171 93.4029 34.8717C93.1639 35.1262 92.8389 35.2829 92.4909 35.3114H92.3123L92.2029 38.9499C92.1047 39.1305 92.077 39.3797 91.4295 39.3797H90.8503C90.9319 38.2523 91.011 36.801 91.0822 35.3114C91.0915 35.1142 91.1007 34.9168 91.1099 34.7192C91.1239 34.4151 91.1376 34.1122 91.1508 33.8105C91.1549 33.7166 91.1595 33.6232 91.1632 33.5298C90.8858 33.5914 90.5955 33.6445 90.2886 33.6877C90.2868 33.7283 90.2849 33.7696 90.283 33.8105C90.2792 33.8986 90.2754 33.9846 90.2713 34.0744C90.2618 34.2854 90.2518 34.5003 90.2415 34.7192C90.2323 34.9146 90.2228 35.1125 90.2131 35.3114C90.208 35.4162 90.2027 35.5212 90.1974 35.6264H80.587C80.5818 35.5212 80.5766 35.4162 80.5714 35.3114C80.5617 35.113 80.5523 34.9147 80.543 34.7192C80.5327 34.5008 80.5228 34.2853 80.5133 34.0744C80.5091 33.9843 80.5054 33.8988 80.5014 33.8105L80.4969 33.707C80.1943 33.6639 79.9027 33.6096 79.6221 33.544C79.6259 33.6328 79.6299 33.7217 79.6338 33.8108C79.6469 34.1121 79.6605 34.415 79.6746 34.7195C79.6837 34.9173 79.6929 35.1147 79.7023 35.3117C79.7733 36.8023 79.8522 38.2527 79.9335 39.38H79.5368C78.8891 39.38 78.8615 39.1307 78.7634 38.9501L78.6539 35.3117H78.4285C78.0806 35.2831 77.7557 35.1263 77.5167 34.8718C77.2778 34.6173 77.1418 34.2831 77.1353 33.934C77.1353 33.934 77.0074 32.8593 76.9484 32.6541C76.7248 32.3341 76.4622 32.043 76.1669 31.7876C76.051 31.677 75.9657 31.5979 75.9657 31.5979L76.0002 31.6144C75.3434 30.9372 74.8285 30.1356 74.4856 29.2568C74.1427 28.3779 73.9786 27.4395 74.003 26.4964V14.4852C73.9733 13.4672 74.1627 12.4546 74.5584 11.5162C74.9541 10.5778 75.5469 9.73536 76.2966 9.04603C76.5129 8.83312 76.7039 8.59596 76.8658 8.33924C76.9248 8.13406 77.0526 7.05934 77.0526 7.05934C77.0615 6.72065 77.1918 6.39643 77.4198 6.14581C77.6477 5.8952 77.9582 5.73489 78.2946 5.69414C78.308 3.6595 78.375 1.05054 78.65 1H92.1117C92.3864 1.05045 92.4414 3.6564 92.446 5.69078C92.7855 5.72833 93.0998 5.88772 93.3307 6.13938C93.5617 6.39104 93.6935 6.7179 93.7018 7.05934C93.7018 7.05934 93.7372 7.35801 93.7794 7.67049C93.7953 7.78692 93.8118 7.90525 93.8279 8.01073C93.8617 8.21946 93.9574 8.41323 94.1026 8.56693C94.4403 8.90791 94.7527 9.27295 95.0375 9.65916L95.0203 9.64864C95.6887 10.4139 96.1775 11.3191 96.4509 12.2977C96.4964 12.4228 96.5494 12.5451 96.6097 12.6637C96.6619 12.7533 96.7367 12.8275 96.8267 12.8789C96.9167 12.9302 97.0187 12.9569 97.1223 12.9562L97.5572 12.9801V14.42C97.7287 14.4743 97.8786 14.5816 97.9855 14.7264C98.0924 14.8711 98.1507 15.046 98.1521 15.2259V18.7245C98.1508 18.9044 98.0925 19.0793 97.9858 19.2241C97.879 19.3689 97.7291 19.4762 97.5576 19.5307V20.9552ZM78.6086 33.7996H78.5757C78.5159 33.7996 78.4567 33.8114 78.4014 33.8342C78.3462 33.8571 78.296 33.8907 78.2537 33.9329C78.2114 33.9752 78.1779 34.0254 78.155 34.0806C78.1321 34.1359 78.1204 34.1951 78.1204 34.2549C78.1204 34.3147 78.1321 34.3739 78.155 34.4291C78.1779 34.4844 78.2114 34.5345 78.2537 34.5768C78.296 34.6191 78.3462 34.6526 78.4014 34.6755C78.4567 34.6984 78.5159 34.7102 78.5757 34.7102H78.636L78.6086 33.7996ZM95.4465 14.4347C95.4465 10.7419 92.81 8.3558 88.7296 8.3558H82.0161C77.8746 8.3558 75.3019 10.6851 75.3019 14.4347V26.4701C75.3019 30.2625 77.8924 32.5267 82.2316 32.5267C82.3652 32.5267 82.5013 32.5245 82.6388 32.5203L82.6631 32.5195H82.6871L87.6032 32.5489C89.2913 32.6686 90.9825 32.3655 92.524 31.6671C93.4219 31.1307 94.164 30.3689 94.6768 29.4573C95.1895 28.5456 95.4551 27.5158 95.4471 26.4699L95.4465 14.4347ZM92.4451 6.29865C92.4443 6.63121 92.4425 6.91419 92.4405 7.13395C92.5228 7.09975 92.5932 7.04203 92.6429 6.96802C92.6926 6.89401 92.7194 6.80699 92.7199 6.71784C92.7204 6.62869 92.6946 6.54138 92.6457 6.46682C92.5969 6.39226 92.5271 6.33376 92.4451 6.29865ZM78.0464 6.7147C78.0474 6.79695 78.0708 6.87737 78.1142 6.94729C78.1575 7.01721 78.2191 7.07396 78.2923 7.11144C78.2914 6.89927 78.291 6.63156 78.2914 6.31883C78.2186 6.3564 78.1575 6.41304 78.1144 6.4827C78.0714 6.55235 78.0475 6.63283 78.0464 6.7147ZM92.792 34.2545C92.791 34.1379 92.7454 34.0263 92.6645 33.9424C92.5836 33.8585 92.4737 33.8089 92.3573 33.8037L92.3301 34.7093H92.335C92.4558 34.7092 92.5716 34.6613 92.6573 34.5761C92.7429 34.4909 92.7913 34.3752 92.792 34.2545Z" fill="#F5F5F7"/>
</svg>
